# xmcd CD database file
# Copyright (C) 1996 Ti Kan
#
# Track frame offsets:
# 	182
# 	12205
# 	24162
# 	38592
# 	51152
# 	62240
# 	80210
# 	95100
# 	107577
# 	121245
# 	134625
# 	148337
# 	160585
# 	174247
# 	185935
#
# Disc length: 2648 seconds
#
# Revision: 1
# Processed by: cddbd v1.4b41PL1 Copyright (c) Steve Scherf et al.
# Submitted via: DiscPlay 3.4.1
#
DISCID=d00a560f
DTITLE=Reba McEntire - Country Superstar - Vol. One
DYEAR=1900
DGENRE=
TTITLE0=Why Do We Want (What We Know We Can't Have)
TTITLE1=I Sacrificed More Than You'll Ever Lose
TTITLE2=Love Isn't Love ('Til You Give It Away)
TTITLE3=(You Lift Me) Up To Heaven
TTITLE4=Can't Even Get The Blues
TTITLE5=I Never Stopped Dreaming Of You
TTITLE6=Today All Over Again
TTITLE7=I'm Not That Lonely Yet
TTITLE8=Sweet Dreams
TTITLE9=Runaway Heart
TTITLE10=I Don't Want To Be A One Night Stand
TTITLE11=One To One
TTITLE12=I've Waited All My Life For You
TTITLE13=Tears On My Pillow
TTITLE14=Look At The One (Who's Been Lookin' At You)
EXTD=
EXTT0=
EXTT1=
EXTT2=
EXTT3=
EXTT4=
EXTT5=
EXTT6=
EXTT7=
EXTT8=
EXTT9=
EXTT10=
EXTT11=
EXTT12=
EXTT13=
EXTT14=
PLAYORDER=
